# xmcd
#
# Track frame offsets:
#	150
#	17305
#	31862
#	45438
#	59948
#	74662
#	90219
#	107376
#	121461
#	135997
#	149802
#	164804
#
# Disc length: 2383 seconds
#
# Revision: 0
# Processed by: cddbd v1.5.2PL0 Copyright (c) Steve Scherf et al.
# Submitted via: audiograbber 1.83.01
#
DISCID=a5094d0c
DTITLE=Kane Brown - Experiment
DYEAR=2019
DGENRE=Country
TTITLE0=Baby Come Back to Me
TTITLE1=Good as You
TTITLE2=Lose It
TTITLE3=It Ain't You It's Me
TTITLE4=Short Skirt Weather
TTITLE5=Homesick
TTITLE6=Weekend
TTITLE7=Work
TTITLE8=One Night Only
TTITLE9=My Where I Come From
TTITLE10=American Bad Dream
TTITLE11=Live Forever
EXTD=
EXTT0=
EXTT1=
EXTT2=
EXTT3=
EXTT4=
EXTT5=
EXTT6=
EXTT7=
EXTT8=
EXTT9=
EXTT10=
EXTT11=
PLAYORDER=
